<?xml version="1.0" encoding="UTF-8"?>
<svg xmlns="http://www.w3.org/2000/svg" xmlns:xlink="http://www.w3.org/1999/xlink" width="72pt" height="72pt" viewBox="0 0 72 72" version="1.1">
<defs>
<clipPath id="clip1">
  <path d="M 14.398438 32 L 19 32 L 19 37 L 14.398438 37 Z M 14.398438 32 "/>
</clipPath>
<clipPath id="clip2">
  <path d="M 16 14.398438 L 21 14.398438 L 21 19 L 16 19 Z M 16 14.398438 "/>
</clipPath>
<clipPath id="clip3">
  <path d="M 21 53 L 27 53 L 27 57.597656 L 21 57.597656 Z M 21 53 "/>
</clipPath>
<clipPath id="clip4">
  <path d="M 24 53 L 29 53 L 29 57.597656 L 24 57.597656 Z M 24 53 "/>
</clipPath>
<clipPath id="clip5">
  <path d="M 25 53 L 31 53 L 31 57.597656 L 25 57.597656 Z M 25 53 "/>
</clipPath>
<clipPath id="clip6">
  <path d="M 27 53 L 32 53 L 32 57.597656 L 27 57.597656 Z M 27 53 "/>
</clipPath>
<clipPath id="clip7">
  <path d="M 28 53 L 33 53 L 33 57.597656 L 28 57.597656 Z M 28 53 "/>
</clipPath>
<clipPath id="clip8">
  <path d="M 29 53 L 35 53 L 35 57.597656 L 29 57.597656 Z M 29 53 "/>
</clipPath>
<clipPath id="clip9">
  <path d="M 31 53 L 36 53 L 36 57.597656 L 31 57.597656 Z M 31 53 "/>
</clipPath>
<clipPath id="clip10">
  <path d="M 32 53 L 37 53 L 37 57.597656 L 32 57.597656 Z M 32 53 "/>
</clipPath>
<clipPath id="clip11">
  <path d="M 33 53 L 39 53 L 39 57.597656 L 33 57.597656 Z M 33 53 "/>
</clipPath>
<clipPath id="clip12">
  <path d="M 35 53 L 40 53 L 40 57.597656 L 35 57.597656 Z M 35 53 "/>
</clipPath>
<clipPath id="clip13">
  <path d="M 36 53 L 41 53 L 41 57.597656 L 36 57.597656 Z M 36 53 "/>
</clipPath>
<clipPath id="clip14">
  <path d="M 37 53 L 43 53 L 43 57.597656 L 37 57.597656 Z M 37 53 "/>
</clipPath>
<clipPath id="clip15">
  <path d="M 39 53 L 44 53 L 44 57.597656 L 39 57.597656 Z M 39 53 "/>
</clipPath>
<clipPath id="clip16">
  <path d="M 40 53 L 45 53 L 45 57.597656 L 40 57.597656 Z M 40 53 "/>
</clipPath>
<clipPath id="clip17">
  <path d="M 41 53 L 47 53 L 47 57.597656 L 41 57.597656 Z M 41 53 "/>
</clipPath>
<clipPath id="clip18">
  <path d="M 43 53 L 48 53 L 48 57.597656 L 43 57.597656 Z M 43 53 "/>
</clipPath>
<clipPath id="clip19">
  <path d="M 44 53 L 49 53 L 49 57.597656 L 44 57.597656 Z M 44 53 "/>
</clipPath>
<clipPath id="clip20">
  <path d="M 45 53 L 51 53 L 51 57.597656 L 45 57.597656 Z M 45 53 "/>
</clipPath>
<clipPath id="clip21">
  <path d="M 47 53 L 52 53 L 52 57.597656 L 47 57.597656 Z M 47 53 "/>
</clipPath>
<clipPath id="clip22">
  <path d="M 48 53 L 53 53 L 53 57.597656 L 48 57.597656 Z M 48 53 "/>
</clipPath>
<clipPath id="clip23">
  <path d="M 49 53 L 55 53 L 55 57.597656 L 49 57.597656 Z M 49 53 "/>
</clipPath>
<clipPath id="clip24">
  <path d="M 51 53 L 56 53 L 56 57.597656 L 51 57.597656 Z M 51 53 "/>
</clipPath>
<clipPath id="clip25">
  <path d="M 52 53 L 57 53 L 57 57.597656 L 52 57.597656 Z M 52 53 "/>
</clipPath>
<clipPath id="clip26">
  <path d="M 53 53 L 57.597656 53 L 57.597656 57.597656 L 53 57.597656 Z M 53 53 "/>
</clipPath>
</defs>
<g id="surface402530">
<rect x="0" y="0" width="72" height="72" style="fill:rgb(100%,100%,100%);fill-opacity:1;stroke:none;"/>
<g clip-path="url(#clip1)" clip-rule="nonzero">
<path style=" stroke:none;fill-rule:nonzero;fill:rgb(25.490196%,71.372549%,76.862745%);fill-opacity:1;" d="M 18.023438 34.109375 C 18.023438 36.8125 13.976562 36.8125 13.976562 34.109375 C 13.976562 31.410156 18.023438 31.410156 18.023438 34.109375 "/>
</g>
<path style=" stroke:none;fill-rule:nonzero;fill:rgb(25.490196%,71.372549%,76.862745%);fill-opacity:1;" d="M 19.359375 24.171875 C 19.359375 26.871094 15.308594 26.871094 15.308594 24.171875 C 15.308594 21.46875 19.359375 21.46875 19.359375 24.171875 "/>
<g clip-path="url(#clip2)" clip-rule="nonzero">
<path style=" stroke:none;fill-rule:nonzero;fill:rgb(25.490196%,71.372549%,76.862745%);fill-opacity:1;" d="M 20.691406 16 C 20.691406 18.699219 16.640625 18.699219 16.640625 16 C 16.640625 13.300781 20.691406 13.300781 20.691406 16 "/>
</g>
<path style=" stroke:none;fill-rule:nonzero;fill:rgb(25.490196%,71.372549%,76.862745%);fill-opacity:1;" d="M 22.023438 31.675781 C 22.023438 34.375 17.976562 34.375 17.976562 31.675781 C 17.976562 28.976562 22.023438 28.976562 22.023438 31.675781 "/>
<path style=" stroke:none;fill-rule:nonzero;fill:rgb(25.490196%,71.372549%,76.862745%);fill-opacity:1;" d="M 23.359375 34.882812 C 23.359375 37.585938 19.308594 37.585938 19.308594 34.882812 C 19.308594 32.183594 23.359375 32.183594 23.359375 34.882812 "/>
<path style=" stroke:none;fill-rule:nonzero;fill:rgb(25.490196%,71.372549%,76.862745%);fill-opacity:1;" d="M 24.691406 50.484375 C 24.691406 53.183594 20.640625 53.183594 20.640625 50.484375 C 20.640625 47.78125 24.691406 47.78125 24.691406 50.484375 "/>
<g clip-path="url(#clip3)" clip-rule="nonzero">
<path style=" stroke:none;fill-rule:nonzero;fill:rgb(25.490196%,71.372549%,76.862745%);fill-opacity:1;" d="M 26.023438 55.9375 C 26.023438 58.636719 21.976562 58.636719 21.976562 55.9375 C 21.976562 53.238281 26.023438 53.238281 26.023438 55.9375 "/>
</g>
<path style=" stroke:none;fill-rule:nonzero;fill:rgb(25.490196%,71.372549%,76.862745%);fill-opacity:1;" d="M 27.359375 54.949219 C 27.359375 57.648438 23.308594 57.648438 23.308594 54.949219 C 23.308594 52.246094 27.359375 52.246094 27.359375 54.949219 "/>
<g clip-path="url(#clip4)" clip-rule="nonzero">
<path style=" stroke:none;fill-rule:nonzero;fill:rgb(25.490196%,71.372549%,76.862745%);fill-opacity:1;" d="M 28.691406 55.3125 C 28.691406 58.011719 24.640625 58.011719 24.640625 55.3125 C 24.640625 52.613281 28.691406 52.613281 28.691406 55.3125 "/>
</g>
<g clip-path="url(#clip5)" clip-rule="nonzero">
<path style=" stroke:none;fill-rule:nonzero;fill:rgb(25.490196%,71.372549%,76.862745%);fill-opacity:1;" d="M 30.023438 55.40625 C 30.023438 58.105469 25.976562 58.105469 25.976562 55.40625 C 25.976562 52.707031 30.023438 52.707031 30.023438 55.40625 "/>
</g>
<g clip-path="url(#clip6)" clip-rule="nonzero">
<path style=" stroke:none;fill-rule:nonzero;fill:rgb(25.490196%,71.372549%,76.862745%);fill-opacity:1;" d="M 31.359375 55.511719 C 31.359375 58.210938 27.308594 58.210938 27.308594 55.511719 C 27.308594 52.8125 31.359375 52.8125 31.359375 55.511719 "/>
</g>
<g clip-path="url(#clip7)" clip-rule="nonzero">
<path style=" stroke:none;fill-rule:nonzero;fill:rgb(25.490196%,71.372549%,76.862745%);fill-opacity:1;" d="M 32.691406 55.59375 C 32.691406 58.292969 28.640625 58.292969 28.640625 55.59375 C 28.640625 52.894531 32.691406 52.894531 32.691406 55.59375 "/>
</g>
<g clip-path="url(#clip8)" clip-rule="nonzero">
<path style=" stroke:none;fill-rule:nonzero;fill:rgb(25.490196%,71.372549%,76.862745%);fill-opacity:1;" d="M 34.023438 55.617188 C 34.023438 58.320312 29.976562 58.320312 29.976562 55.617188 C 29.976562 52.917969 34.023438 52.917969 34.023438 55.617188 "/>
</g>
<g clip-path="url(#clip9)" clip-rule="nonzero">
<path style=" stroke:none;fill-rule:nonzero;fill:rgb(25.490196%,71.372549%,76.862745%);fill-opacity:1;" d="M 35.359375 55.640625 C 35.359375 58.34375 31.308594 58.34375 31.308594 55.640625 C 31.308594 52.941406 35.359375 52.941406 35.359375 55.640625 "/>
</g>
<g clip-path="url(#clip10)" clip-rule="nonzero">
<path style=" stroke:none;fill-rule:nonzero;fill:rgb(25.490196%,71.372549%,76.862745%);fill-opacity:1;" d="M 36.691406 55.773438 C 36.691406 58.472656 32.640625 58.472656 32.640625 55.773438 C 32.640625 53.074219 36.691406 53.074219 36.691406 55.773438 "/>
</g>
<g clip-path="url(#clip11)" clip-rule="nonzero">
<path style=" stroke:none;fill-rule:nonzero;fill:rgb(25.490196%,71.372549%,76.862745%);fill-opacity:1;" d="M 38.023438 55.871094 C 38.023438 58.574219 33.976562 58.574219 33.976562 55.871094 C 33.976562 53.171875 38.023438 53.171875 38.023438 55.871094 "/>
</g>
<g clip-path="url(#clip12)" clip-rule="nonzero">
<path style=" stroke:none;fill-rule:nonzero;fill:rgb(25.490196%,71.372549%,76.862745%);fill-opacity:1;" d="M 39.359375 55.9375 C 39.359375 58.636719 35.308594 58.636719 35.308594 55.9375 C 35.308594 53.238281 39.359375 53.238281 39.359375 55.9375 "/>
</g>
<g clip-path="url(#clip13)" clip-rule="nonzero">
<path style=" stroke:none;fill-rule:nonzero;fill:rgb(25.490196%,71.372549%,76.862745%);fill-opacity:1;" d="M 40.691406 55.980469 C 40.691406 58.679688 36.640625 58.679688 36.640625 55.980469 C 36.640625 53.28125 40.691406 53.28125 40.691406 55.980469 "/>
</g>
<g clip-path="url(#clip14)" clip-rule="nonzero">
<path style=" stroke:none;fill-rule:nonzero;fill:rgb(25.490196%,71.372549%,76.862745%);fill-opacity:1;" d="M 42.023438 56 C 42.023438 58.699219 37.976562 58.699219 37.976562 56 C 37.976562 53.300781 42.023438 53.300781 42.023438 56 "/>
</g>
<g clip-path="url(#clip15)" clip-rule="nonzero">
<path style=" stroke:none;fill-rule:nonzero;fill:rgb(25.490196%,71.372549%,76.862745%);fill-opacity:1;" d="M 43.359375 55.988281 C 43.359375 58.691406 39.308594 58.691406 39.308594 55.988281 C 39.308594 53.289062 43.359375 53.289062 43.359375 55.988281 "/>
</g>
<g clip-path="url(#clip16)" clip-rule="nonzero">
<path style=" stroke:none;fill-rule:nonzero;fill:rgb(25.490196%,71.372549%,76.862745%);fill-opacity:1;" d="M 44.691406 55.972656 C 44.691406 58.671875 40.640625 58.671875 40.640625 55.972656 C 40.640625 53.269531 44.691406 53.269531 44.691406 55.972656 "/>
</g>
<g clip-path="url(#clip17)" clip-rule="nonzero">
<path style=" stroke:none;fill-rule:nonzero;fill:rgb(25.490196%,71.372549%,76.862745%);fill-opacity:1;" d="M 46.023438 55.929688 C 46.023438 58.632812 41.976562 58.632812 41.976562 55.929688 C 41.976562 53.230469 46.023438 53.230469 46.023438 55.929688 "/>
</g>
<g clip-path="url(#clip18)" clip-rule="nonzero">
<path style=" stroke:none;fill-rule:nonzero;fill:rgb(25.490196%,71.372549%,76.862745%);fill-opacity:1;" d="M 47.359375 55.867188 C 47.359375 58.566406 43.308594 58.566406 43.308594 55.867188 C 43.308594 53.167969 47.359375 53.167969 47.359375 55.867188 "/>
</g>
<g clip-path="url(#clip19)" clip-rule="nonzero">
<path style=" stroke:none;fill-rule:nonzero;fill:rgb(25.490196%,71.372549%,76.862745%);fill-opacity:1;" d="M 48.691406 55.75 C 48.691406 58.453125 44.640625 58.453125 44.640625 55.75 C 44.640625 53.050781 48.691406 53.050781 48.691406 55.75 "/>
</g>
<g clip-path="url(#clip20)" clip-rule="nonzero">
<path style=" stroke:none;fill-rule:nonzero;fill:rgb(25.490196%,71.372549%,76.862745%);fill-opacity:1;" d="M 50.023438 55.539062 C 50.023438 58.238281 45.976562 58.238281 45.976562 55.539062 C 45.976562 52.839844 50.023438 52.839844 50.023438 55.539062 "/>
</g>
<g clip-path="url(#clip21)" clip-rule="nonzero">
<path style=" stroke:none;fill-rule:nonzero;fill:rgb(25.490196%,71.372549%,76.862745%);fill-opacity:1;" d="M 51.359375 55.320312 C 51.359375 58.023438 47.308594 58.023438 47.308594 55.320312 C 47.308594 52.621094 51.359375 52.621094 51.359375 55.320312 "/>
</g>
<g clip-path="url(#clip22)" clip-rule="nonzero">
<path style=" stroke:none;fill-rule:nonzero;fill:rgb(25.490196%,71.372549%,76.862745%);fill-opacity:1;" d="M 52.691406 55.113281 C 52.691406 57.8125 48.640625 57.8125 48.640625 55.113281 C 48.640625 52.414062 52.691406 52.414062 52.691406 55.113281 "/>
</g>
<g clip-path="url(#clip23)" clip-rule="nonzero">
<path style=" stroke:none;fill-rule:nonzero;fill:rgb(25.490196%,71.372549%,76.862745%);fill-opacity:1;" d="M 54.023438 55.097656 C 54.023438 57.796875 49.976562 57.796875 49.976562 55.097656 C 49.976562 52.398438 54.023438 52.398438 54.023438 55.097656 "/>
</g>
<g clip-path="url(#clip24)" clip-rule="nonzero">
<path style=" stroke:none;fill-rule:nonzero;fill:rgb(25.490196%,71.372549%,76.862745%);fill-opacity:1;" d="M 55.359375 55.132812 C 55.359375 57.832031 51.308594 57.832031 51.308594 55.132812 C 51.308594 52.429688 55.359375 52.429688 55.359375 55.132812 "/>
</g>
<g clip-path="url(#clip25)" clip-rule="nonzero">
<path style=" stroke:none;fill-rule:nonzero;fill:rgb(25.490196%,71.372549%,76.862745%);fill-opacity:1;" d="M 56.691406 55.503906 C 56.691406 58.203125 52.640625 58.203125 52.640625 55.503906 C 52.640625 52.800781 56.691406 52.800781 56.691406 55.503906 "/>
</g>
<g clip-path="url(#clip26)" clip-rule="nonzero">
<path style=" stroke:none;fill-rule:nonzero;fill:rgb(25.490196%,71.372549%,76.862745%);fill-opacity:1;" d="M 58.023438 55.726562 C 58.023438 58.429688 53.976562 58.429688 53.976562 55.726562 C 53.976562 53.027344 58.023438 53.027344 58.023438 55.726562 "/>
</g>
<path style="fill:none;stroke-width:0.75;stroke-linecap:round;stroke-linejoin:round;stroke:rgb(0%,0%,0%);stroke-opacity:1;stroke-miterlimit:10;" d="M 14.667969 57.601562 L 54.667969 57.601562 "/>
<path style="fill:none;stroke-width:0.75;stroke-linecap:round;stroke-linejoin:round;stroke:rgb(0%,0%,0%);stroke-opacity:1;stroke-miterlimit:10;" d="M 14.667969 57.601562 L 14.667969 64.800781 "/>
<path style="fill:none;stroke-width:0.75;stroke-linecap:round;stroke-linejoin:round;stroke:rgb(0%,0%,0%);stroke-opacity:1;stroke-miterlimit:10;" d="M 21.332031 57.601562 L 21.332031 64.800781 "/>
<path style="fill:none;stroke-width:0.75;stroke-linecap:round;stroke-linejoin:round;stroke:rgb(0%,0%,0%);stroke-opacity:1;stroke-miterlimit:10;" d="M 28 57.601562 L 28 64.800781 "/>
<path style="fill:none;stroke-width:0.75;stroke-linecap:round;stroke-linejoin:round;stroke:rgb(0%,0%,0%);stroke-opacity:1;stroke-miterlimit:10;" d="M 34.667969 57.601562 L 34.667969 64.800781 "/>
<path style="fill:none;stroke-width:0.75;stroke-linecap:round;stroke-linejoin:round;stroke:rgb(0%,0%,0%);stroke-opacity:1;stroke-miterlimit:10;" d="M 41.332031 57.601562 L 41.332031 64.800781 "/>
<path style="fill:none;stroke-width:0.75;stroke-linecap:round;stroke-linejoin:round;stroke:rgb(0%,0%,0%);stroke-opacity:1;stroke-miterlimit:10;" d="M 48 57.601562 L 48 64.800781 "/>
<path style="fill:none;stroke-width:0.75;stroke-linecap:round;stroke-linejoin:round;stroke:rgb(0%,0%,0%);stroke-opacity:1;stroke-miterlimit:10;" d="M 54.667969 57.601562 L 54.667969 64.800781 "/>
<path style="fill:none;stroke-width:0.75;stroke-linecap:round;stroke-linejoin:round;stroke:rgb(0%,0%,0%);stroke-opacity:1;stroke-miterlimit:10;" d="M 14.398438 56.445312 L 14.398438 16.21875 "/>
<path style="fill:none;stroke-width:0.75;stroke-linecap:round;stroke-linejoin:round;stroke:rgb(0%,0%,0%);stroke-opacity:1;stroke-miterlimit:10;" d="M 14.398438 56.445312 L 7.199219 56.445312 "/>
<path style="fill:none;stroke-width:0.75;stroke-linecap:round;stroke-linejoin:round;stroke:rgb(0%,0%,0%);stroke-opacity:1;stroke-miterlimit:10;" d="M 14.398438 43.035156 L 7.199219 43.035156 "/>
<path style="fill:none;stroke-width:0.75;stroke-linecap:round;stroke-linejoin:round;stroke:rgb(0%,0%,0%);stroke-opacity:1;stroke-miterlimit:10;" d="M 14.398438 29.625 L 7.199219 29.625 "/>
<path style="fill:none;stroke-width:0.75;stroke-linecap:round;stroke-linejoin:round;stroke:rgb(0%,0%,0%);stroke-opacity:1;stroke-miterlimit:10;" d="M 14.398438 16.21875 L 7.199219 16.21875 "/>
<path style="fill:none;stroke-width:0.75;stroke-linecap:round;stroke-linejoin:round;stroke:rgb(0%,0%,0%);stroke-opacity:1;stroke-miterlimit:10;" d="M 14.398438 57.601562 L 57.601562 57.601562 L 57.601562 14.398438 L 14.398438 14.398438 L 14.398438 57.601562 "/>
<path style="fill:none;stroke-width:0.75;stroke-linecap:round;stroke-linejoin:round;stroke:rgb(25.490196%,71.372549%,76.862745%);stroke-opacity:1;stroke-miterlimit:10;" d="M 16 34.109375 L 17.332031 24.171875 L 18.667969 16 L 20 31.675781 L 21.332031 34.882812 L 22.667969 50.484375 L 24 55.9375 L 25.332031 54.949219 L 26.667969 55.3125 L 28 55.40625 L 29.332031 55.511719 L 30.667969 55.59375 L 33.332031 55.640625 L 34.667969 55.773438 L 36 55.871094 L 37.332031 55.9375 L 38.667969 55.980469 L 40 56 L 41.332031 55.988281 L 42.667969 55.972656 L 44 55.929688 L 45.332031 55.867188 L 46.667969 55.75 L 48 55.539062 L 49.332031 55.320312 L 50.667969 55.113281 L 52 55.097656 L 53.332031 55.132812 L 54.667969 55.503906 L 56 55.726562 "/>
</g>
</svg>
