<?xml version="1.0" encoding="UTF-8"?>
<svg xmlns="http://www.w3.org/2000/svg" xmlns:xlink="http://www.w3.org/1999/xlink" width="72pt" height="72pt" viewBox="0 0 72 72" version="1.1">
<defs>
<clipPath id="clip1">
  <path d="M 14.398438 14.398438 L 19 14.398438 L 19 19 L 14.398438 19 Z M 14.398438 14.398438 "/>
</clipPath>
<clipPath id="clip2">
  <path d="M 23 53 L 28 53 L 28 57.597656 L 23 57.597656 Z M 23 53 "/>
</clipPath>
<clipPath id="clip3">
  <path d="M 24 53 L 29 53 L 29 57.597656 L 24 57.597656 Z M 24 53 "/>
</clipPath>
<clipPath id="clip4">
  <path d="M 25 53 L 31 53 L 31 57.597656 L 25 57.597656 Z M 25 53 "/>
</clipPath>
<clipPath id="clip5">
  <path d="M 27 53 L 32 53 L 32 57.597656 L 27 57.597656 Z M 27 53 "/>
</clipPath>
<clipPath id="clip6">
  <path d="M 28 53 L 33 53 L 33 57.597656 L 28 57.597656 Z M 28 53 "/>
</clipPath>
<clipPath id="clip7">
  <path d="M 29 53 L 35 53 L 35 57.597656 L 29 57.597656 Z M 29 53 "/>
</clipPath>
<clipPath id="clip8">
  <path d="M 31 53 L 36 53 L 36 57.597656 L 31 57.597656 Z M 31 53 "/>
</clipPath>
<clipPath id="clip9">
  <path d="M 32 53 L 37 53 L 37 57.597656 L 32 57.597656 Z M 32 53 "/>
</clipPath>
<clipPath id="clip10">
  <path d="M 33 53 L 39 53 L 39 57.597656 L 33 57.597656 Z M 33 53 "/>
</clipPath>
<clipPath id="clip11">
  <path d="M 35 53 L 40 53 L 40 57.597656 L 35 57.597656 Z M 35 53 "/>
</clipPath>
<clipPath id="clip12">
  <path d="M 36 53 L 41 53 L 41 57.597656 L 36 57.597656 Z M 36 53 "/>
</clipPath>
<clipPath id="clip13">
  <path d="M 37 53 L 43 53 L 43 57.597656 L 37 57.597656 Z M 37 53 "/>
</clipPath>
<clipPath id="clip14">
  <path d="M 39 53 L 44 53 L 44 57.597656 L 39 57.597656 Z M 39 53 "/>
</clipPath>
<clipPath id="clip15">
  <path d="M 40 53 L 45 53 L 45 57.597656 L 40 57.597656 Z M 40 53 "/>
</clipPath>
<clipPath id="clip16">
  <path d="M 41 53 L 47 53 L 47 57.597656 L 41 57.597656 Z M 41 53 "/>
</clipPath>
<clipPath id="clip17">
  <path d="M 43 53 L 48 53 L 48 57.597656 L 43 57.597656 Z M 43 53 "/>
</clipPath>
<clipPath id="clip18">
  <path d="M 44 53 L 49 53 L 49 57.597656 L 44 57.597656 Z M 44 53 "/>
</clipPath>
<clipPath id="clip19">
  <path d="M 45 53 L 51 53 L 51 57.597656 L 45 57.597656 Z M 45 53 "/>
</clipPath>
<clipPath id="clip20">
  <path d="M 47 53 L 52 53 L 52 57.597656 L 47 57.597656 Z M 47 53 "/>
</clipPath>
<clipPath id="clip21">
  <path d="M 48 53 L 53 53 L 53 57.597656 L 48 57.597656 Z M 48 53 "/>
</clipPath>
<clipPath id="clip22">
  <path d="M 49 53 L 55 53 L 55 57.597656 L 49 57.597656 Z M 49 53 "/>
</clipPath>
<clipPath id="clip23">
  <path d="M 51 53 L 56 53 L 56 57.597656 L 51 57.597656 Z M 51 53 "/>
</clipPath>
<clipPath id="clip24">
  <path d="M 52 53 L 57 53 L 57 57.597656 L 52 57.597656 Z M 52 53 "/>
</clipPath>
<clipPath id="clip25">
  <path d="M 53 53 L 57.597656 53 L 57.597656 57.597656 L 53 57.597656 Z M 53 53 "/>
</clipPath>
</defs>
<g id="surface402540">
<rect x="0" y="0" width="72" height="72" style="fill:rgb(100%,100%,100%);fill-opacity:1;stroke:none;"/>
<g clip-path="url(#clip1)" clip-rule="nonzero">
<path style=" stroke:none;fill-rule:nonzero;fill:rgb(25.490196%,71.372549%,76.862745%);fill-opacity:1;" d="M 18.023438 16 C 18.023438 18.699219 13.976562 18.699219 13.976562 16 C 13.976562 13.300781 18.023438 13.300781 18.023438 16 "/>
</g>
<path style=" stroke:none;fill-rule:nonzero;fill:rgb(25.490196%,71.372549%,76.862745%);fill-opacity:1;" d="M 19.359375 38.804688 C 19.359375 41.503906 15.308594 41.503906 15.308594 38.804688 C 15.308594 36.105469 19.359375 36.105469 19.359375 38.804688 "/>
<path style=" stroke:none;fill-rule:nonzero;fill:rgb(25.490196%,71.372549%,76.862745%);fill-opacity:1;" d="M 20.691406 42.492188 C 20.691406 45.191406 16.640625 45.191406 16.640625 42.492188 C 16.640625 39.792969 20.691406 39.792969 20.691406 42.492188 "/>
<path style=" stroke:none;fill-rule:nonzero;fill:rgb(25.490196%,71.372549%,76.862745%);fill-opacity:1;" d="M 22.023438 45.589844 C 22.023438 48.289062 17.976562 48.289062 17.976562 45.589844 C 17.976562 42.890625 22.023438 42.890625 22.023438 45.589844 "/>
<path style=" stroke:none;fill-rule:nonzero;fill:rgb(25.490196%,71.372549%,76.862745%);fill-opacity:1;" d="M 23.359375 47.414062 C 23.359375 50.113281 19.308594 50.113281 19.308594 47.414062 C 19.308594 44.714844 23.359375 44.714844 23.359375 47.414062 "/>
<path style=" stroke:none;fill-rule:nonzero;fill:rgb(25.490196%,71.372549%,76.862745%);fill-opacity:1;" d="M 24.691406 49.523438 C 24.691406 52.222656 20.640625 52.222656 20.640625 49.523438 C 20.640625 46.824219 24.691406 46.824219 24.691406 49.523438 "/>
<path style=" stroke:none;fill-rule:nonzero;fill:rgb(25.490196%,71.372549%,76.862745%);fill-opacity:1;" d="M 26.023438 52.683594 C 26.023438 55.386719 21.976562 55.386719 21.976562 52.683594 C 21.976562 49.984375 26.023438 49.984375 26.023438 52.683594 "/>
<g clip-path="url(#clip2)" clip-rule="nonzero">
<path style=" stroke:none;fill-rule:nonzero;fill:rgb(25.490196%,71.372549%,76.862745%);fill-opacity:1;" d="M 27.359375 55.035156 C 27.359375 57.734375 23.308594 57.734375 23.308594 55.035156 C 23.308594 52.335938 27.359375 52.335938 27.359375 55.035156 "/>
</g>
<g clip-path="url(#clip3)" clip-rule="nonzero">
<path style=" stroke:none;fill-rule:nonzero;fill:rgb(25.490196%,71.372549%,76.862745%);fill-opacity:1;" d="M 28.691406 55.496094 C 28.691406 58.195312 24.640625 58.195312 24.640625 55.496094 C 24.640625 52.796875 28.691406 52.796875 28.691406 55.496094 "/>
</g>
<g clip-path="url(#clip4)" clip-rule="nonzero">
<path style=" stroke:none;fill-rule:nonzero;fill:rgb(25.490196%,71.372549%,76.862745%);fill-opacity:1;" d="M 30.023438 55.207031 C 30.023438 57.90625 25.976562 57.90625 25.976562 55.207031 C 25.976562 52.507812 30.023438 52.507812 30.023438 55.207031 "/>
</g>
<g clip-path="url(#clip5)" clip-rule="nonzero">
<path style=" stroke:none;fill-rule:nonzero;fill:rgb(25.490196%,71.372549%,76.862745%);fill-opacity:1;" d="M 31.359375 55.691406 C 31.359375 58.390625 27.308594 58.390625 27.308594 55.691406 C 27.308594 52.988281 31.359375 52.988281 31.359375 55.691406 "/>
</g>
<g clip-path="url(#clip6)" clip-rule="nonzero">
<path style=" stroke:none;fill-rule:nonzero;fill:rgb(25.490196%,71.372549%,76.862745%);fill-opacity:1;" d="M 32.691406 55.886719 C 32.691406 58.585938 28.640625 58.585938 28.640625 55.886719 C 28.640625 53.183594 32.691406 53.183594 32.691406 55.886719 "/>
</g>
<g clip-path="url(#clip7)" clip-rule="nonzero">
<path style=" stroke:none;fill-rule:nonzero;fill:rgb(25.490196%,71.372549%,76.862745%);fill-opacity:1;" d="M 34.023438 55.875 C 34.023438 58.574219 29.976562 58.574219 29.976562 55.875 C 29.976562 53.175781 34.023438 53.175781 34.023438 55.875 "/>
</g>
<g clip-path="url(#clip8)" clip-rule="nonzero">
<path style=" stroke:none;fill-rule:nonzero;fill:rgb(25.490196%,71.372549%,76.862745%);fill-opacity:1;" d="M 35.359375 55.90625 C 35.359375 58.605469 31.308594 58.605469 31.308594 55.90625 C 31.308594 53.207031 35.359375 53.207031 35.359375 55.90625 "/>
</g>
<g clip-path="url(#clip9)" clip-rule="nonzero">
<path style=" stroke:none;fill-rule:nonzero;fill:rgb(25.490196%,71.372549%,76.862745%);fill-opacity:1;" d="M 36.691406 55.9375 C 36.691406 58.636719 32.640625 58.636719 32.640625 55.9375 C 32.640625 53.234375 36.691406 53.234375 36.691406 55.9375 "/>
</g>
<g clip-path="url(#clip10)" clip-rule="nonzero">
<path style=" stroke:none;fill-rule:nonzero;fill:rgb(25.490196%,71.372549%,76.862745%);fill-opacity:1;" d="M 38.023438 55.945312 C 38.023438 58.644531 33.976562 58.644531 33.976562 55.945312 C 33.976562 53.246094 38.023438 53.246094 38.023438 55.945312 "/>
</g>
<g clip-path="url(#clip11)" clip-rule="nonzero">
<path style=" stroke:none;fill-rule:nonzero;fill:rgb(25.490196%,71.372549%,76.862745%);fill-opacity:1;" d="M 39.359375 55.96875 C 39.359375 58.667969 35.308594 58.667969 35.308594 55.96875 C 35.308594 53.269531 39.359375 53.269531 39.359375 55.96875 "/>
</g>
<g clip-path="url(#clip12)" clip-rule="nonzero">
<path style=" stroke:none;fill-rule:nonzero;fill:rgb(25.490196%,71.372549%,76.862745%);fill-opacity:1;" d="M 40.691406 55.980469 C 40.691406 58.679688 36.640625 58.679688 36.640625 55.980469 C 36.640625 53.28125 40.691406 53.28125 40.691406 55.980469 "/>
</g>
<g clip-path="url(#clip13)" clip-rule="nonzero">
<path style=" stroke:none;fill-rule:nonzero;fill:rgb(25.490196%,71.372549%,76.862745%);fill-opacity:1;" d="M 42.023438 55.984375 C 42.023438 58.683594 37.976562 58.683594 37.976562 55.984375 C 37.976562 53.285156 42.023438 53.285156 42.023438 55.984375 "/>
</g>
<g clip-path="url(#clip14)" clip-rule="nonzero">
<path style=" stroke:none;fill-rule:nonzero;fill:rgb(25.490196%,71.372549%,76.862745%);fill-opacity:1;" d="M 43.359375 55.988281 C 43.359375 58.6875 39.308594 58.6875 39.308594 55.988281 C 39.308594 53.289062 43.359375 53.289062 43.359375 55.988281 "/>
</g>
<g clip-path="url(#clip15)" clip-rule="nonzero">
<path style=" stroke:none;fill-rule:nonzero;fill:rgb(25.490196%,71.372549%,76.862745%);fill-opacity:1;" d="M 44.691406 55.996094 C 44.691406 58.695312 40.640625 58.695312 40.640625 55.996094 C 40.640625 53.292969 44.691406 53.292969 44.691406 55.996094 "/>
</g>
<g clip-path="url(#clip16)" clip-rule="nonzero">
<path style=" stroke:none;fill-rule:nonzero;fill:rgb(25.490196%,71.372549%,76.862745%);fill-opacity:1;" d="M 46.023438 56 C 46.023438 58.699219 41.976562 58.699219 41.976562 56 C 41.976562 53.300781 46.023438 53.300781 46.023438 56 "/>
</g>
<g clip-path="url(#clip17)" clip-rule="nonzero">
<path style=" stroke:none;fill-rule:nonzero;fill:rgb(25.490196%,71.372549%,76.862745%);fill-opacity:1;" d="M 47.359375 55.996094 C 47.359375 58.695312 43.308594 58.695312 43.308594 55.996094 C 43.308594 53.296875 47.359375 53.296875 47.359375 55.996094 "/>
</g>
<g clip-path="url(#clip18)" clip-rule="nonzero">
<path style=" stroke:none;fill-rule:nonzero;fill:rgb(25.490196%,71.372549%,76.862745%);fill-opacity:1;" d="M 48.691406 55.988281 C 48.691406 58.6875 44.640625 58.6875 44.640625 55.988281 C 44.640625 53.285156 48.691406 53.285156 48.691406 55.988281 "/>
</g>
<g clip-path="url(#clip19)" clip-rule="nonzero">
<path style=" stroke:none;fill-rule:nonzero;fill:rgb(25.490196%,71.372549%,76.862745%);fill-opacity:1;" d="M 50.023438 55.980469 C 50.023438 58.679688 45.976562 58.679688 45.976562 55.980469 C 45.976562 53.277344 50.023438 53.277344 50.023438 55.980469 "/>
</g>
<g clip-path="url(#clip20)" clip-rule="nonzero">
<path style=" stroke:none;fill-rule:nonzero;fill:rgb(25.490196%,71.372549%,76.862745%);fill-opacity:1;" d="M 51.359375 55.96875 C 51.359375 58.667969 47.308594 58.667969 47.308594 55.96875 C 47.308594 53.269531 51.359375 53.269531 51.359375 55.96875 "/>
</g>
<g clip-path="url(#clip21)" clip-rule="nonzero">
<path style=" stroke:none;fill-rule:nonzero;fill:rgb(25.490196%,71.372549%,76.862745%);fill-opacity:1;" d="M 52.691406 55.949219 C 52.691406 58.648438 48.640625 58.648438 48.640625 55.949219 C 48.640625 53.25 52.691406 53.25 52.691406 55.949219 "/>
</g>
<g clip-path="url(#clip22)" clip-rule="nonzero">
<path style=" stroke:none;fill-rule:nonzero;fill:rgb(25.490196%,71.372549%,76.862745%);fill-opacity:1;" d="M 54.023438 55.933594 C 54.023438 58.632812 49.976562 58.632812 49.976562 55.933594 C 49.976562 53.234375 54.023438 53.234375 54.023438 55.933594 "/>
</g>
<g clip-path="url(#clip23)" clip-rule="nonzero">
<path style=" stroke:none;fill-rule:nonzero;fill:rgb(25.490196%,71.372549%,76.862745%);fill-opacity:1;" d="M 55.359375 55.90625 C 55.359375 58.605469 51.308594 58.605469 51.308594 55.90625 C 51.308594 53.207031 55.359375 53.207031 55.359375 55.90625 "/>
</g>
<g clip-path="url(#clip24)" clip-rule="nonzero">
<path style=" stroke:none;fill-rule:nonzero;fill:rgb(25.490196%,71.372549%,76.862745%);fill-opacity:1;" d="M 56.691406 55.875 C 56.691406 58.574219 52.640625 58.574219 52.640625 55.875 C 52.640625 53.175781 56.691406 53.175781 56.691406 55.875 "/>
</g>
<g clip-path="url(#clip25)" clip-rule="nonzero">
<path style=" stroke:none;fill-rule:nonzero;fill:rgb(25.490196%,71.372549%,76.862745%);fill-opacity:1;" d="M 58.023438 55.832031 C 58.023438 58.535156 53.976562 58.535156 53.976562 55.832031 C 53.976562 53.132812 58.023438 53.132812 58.023438 55.832031 "/>
</g>
<path style="fill:none;stroke-width:0.75;stroke-linecap:round;stroke-linejoin:round;stroke:rgb(0%,0%,0%);stroke-opacity:1;stroke-miterlimit:10;" d="M 14.667969 57.601562 L 54.667969 57.601562 "/>
<path style="fill:none;stroke-width:0.75;stroke-linecap:round;stroke-linejoin:round;stroke:rgb(0%,0%,0%);stroke-opacity:1;stroke-miterlimit:10;" d="M 14.667969 57.601562 L 14.667969 64.800781 "/>
<path style="fill:none;stroke-width:0.75;stroke-linecap:round;stroke-linejoin:round;stroke:rgb(0%,0%,0%);stroke-opacity:1;stroke-miterlimit:10;" d="M 21.332031 57.601562 L 21.332031 64.800781 "/>
<path style="fill:none;stroke-width:0.75;stroke-linecap:round;stroke-linejoin:round;stroke:rgb(0%,0%,0%);stroke-opacity:1;stroke-miterlimit:10;" d="M 28 57.601562 L 28 64.800781 "/>
<path style="fill:none;stroke-width:0.75;stroke-linecap:round;stroke-linejoin:round;stroke:rgb(0%,0%,0%);stroke-opacity:1;stroke-miterlimit:10;" d="M 34.667969 57.601562 L 34.667969 64.800781 "/>
<path style="fill:none;stroke-width:0.75;stroke-linecap:round;stroke-linejoin:round;stroke:rgb(0%,0%,0%);stroke-opacity:1;stroke-miterlimit:10;" d="M 41.332031 57.601562 L 41.332031 64.800781 "/>
<path style="fill:none;stroke-width:0.75;stroke-linecap:round;stroke-linejoin:round;stroke:rgb(0%,0%,0%);stroke-opacity:1;stroke-miterlimit:10;" d="M 48 57.601562 L 48 64.800781 "/>
<path style="fill:none;stroke-width:0.75;stroke-linecap:round;stroke-linejoin:round;stroke:rgb(0%,0%,0%);stroke-opacity:1;stroke-miterlimit:10;" d="M 54.667969 57.601562 L 54.667969 64.800781 "/>
<path style="fill:none;stroke-width:0.75;stroke-linecap:round;stroke-linejoin:round;stroke:rgb(0%,0%,0%);stroke-opacity:1;stroke-miterlimit:10;" d="M 14.398438 56.171875 L 14.398438 20.507812 "/>
<path style="fill:none;stroke-width:0.75;stroke-linecap:round;stroke-linejoin:round;stroke:rgb(0%,0%,0%);stroke-opacity:1;stroke-miterlimit:10;" d="M 14.398438 56.171875 L 7.199219 56.171875 "/>
<path style="fill:none;stroke-width:0.75;stroke-linecap:round;stroke-linejoin:round;stroke:rgb(0%,0%,0%);stroke-opacity:1;stroke-miterlimit:10;" d="M 14.398438 49.039062 L 7.199219 49.039062 "/>
<path style="fill:none;stroke-width:0.75;stroke-linecap:round;stroke-linejoin:round;stroke:rgb(0%,0%,0%);stroke-opacity:1;stroke-miterlimit:10;" d="M 14.398438 41.90625 L 7.199219 41.90625 "/>
<path style="fill:none;stroke-width:0.75;stroke-linecap:round;stroke-linejoin:round;stroke:rgb(0%,0%,0%);stroke-opacity:1;stroke-miterlimit:10;" d="M 14.398438 34.773438 L 7.199219 34.773438 "/>
<path style="fill:none;stroke-width:0.75;stroke-linecap:round;stroke-linejoin:round;stroke:rgb(0%,0%,0%);stroke-opacity:1;stroke-miterlimit:10;" d="M 14.398438 27.640625 L 7.199219 27.640625 "/>
<path style="fill:none;stroke-width:0.75;stroke-linecap:round;stroke-linejoin:round;stroke:rgb(0%,0%,0%);stroke-opacity:1;stroke-miterlimit:10;" d="M 14.398438 20.507812 L 7.199219 20.507812 "/>
<path style="fill:none;stroke-width:0.75;stroke-linecap:round;stroke-linejoin:round;stroke:rgb(0%,0%,0%);stroke-opacity:1;stroke-miterlimit:10;" d="M 14.398438 57.601562 L 57.601562 57.601562 L 57.601562 14.398438 L 14.398438 14.398438 L 14.398438 57.601562 "/>
<path style="fill:none;stroke-width:0.75;stroke-linecap:round;stroke-linejoin:round;stroke:rgb(25.490196%,71.372549%,76.862745%);stroke-opacity:1;stroke-miterlimit:10;" d="M 16 16 L 17.332031 38.804688 L 18.667969 42.492188 L 20 45.589844 L 21.332031 47.414062 L 22.667969 49.523438 L 24 52.683594 L 25.332031 55.035156 L 26.667969 55.496094 L 28 55.207031 L 29.332031 55.691406 L 30.667969 55.886719 L 32 55.875 L 33.332031 55.90625 L 34.667969 55.9375 L 36 55.945312 L 37.332031 55.96875 L 38.667969 55.980469 L 41.332031 55.988281 L 42.667969 55.996094 L 44 56 L 45.332031 55.996094 L 46.667969 55.988281 L 48 55.980469 L 49.332031 55.96875 L 50.667969 55.949219 L 52 55.933594 L 53.332031 55.90625 L 54.667969 55.875 L 56 55.832031 "/>
</g>
</svg>
