<?xml version="1.0" encoding="UTF-8"?>
<svg xmlns="http://www.w3.org/2000/svg" xmlns:xlink="http://www.w3.org/1999/xlink" width="72pt" height="72pt" viewBox="0 0 72 72" version="1.1">
<defs>
<clipPath id="clip1">
  <path d="M 14.398438 40 L 19 40 L 19 45 L 14.398438 45 Z M 14.398438 40 "/>
</clipPath>
<clipPath id="clip2">
  <path d="M 15 14.398438 L 20 14.398438 L 20 19 L 15 19 Z M 15 14.398438 "/>
</clipPath>
<clipPath id="clip3">
  <path d="M 16 14.398438 L 21 14.398438 L 21 19 L 16 19 Z M 16 14.398438 "/>
</clipPath>
<clipPath id="clip4">
  <path d="M 36 53 L 41 53 L 41 57.597656 L 36 57.597656 Z M 36 53 "/>
</clipPath>
<clipPath id="clip5">
  <path d="M 37 53 L 43 53 L 43 57.597656 L 37 57.597656 Z M 37 53 "/>
</clipPath>
<clipPath id="clip6">
  <path d="M 41 53 L 47 53 L 47 57.597656 L 41 57.597656 Z M 41 53 "/>
</clipPath>
<clipPath id="clip7">
  <path d="M 43 53 L 48 53 L 48 57.597656 L 43 57.597656 Z M 43 53 "/>
</clipPath>
<clipPath id="clip8">
  <path d="M 44 53 L 49 53 L 49 57.597656 L 44 57.597656 Z M 44 53 "/>
</clipPath>
<clipPath id="clip9">
  <path d="M 45 53 L 51 53 L 51 57.597656 L 45 57.597656 Z M 45 53 "/>
</clipPath>
<clipPath id="clip10">
  <path d="M 47 53 L 52 53 L 52 57.597656 L 47 57.597656 Z M 47 53 "/>
</clipPath>
<clipPath id="clip11">
  <path d="M 48 53 L 53 53 L 53 57.597656 L 48 57.597656 Z M 48 53 "/>
</clipPath>
<clipPath id="clip12">
  <path d="M 49 53 L 55 53 L 55 57.597656 L 49 57.597656 Z M 49 53 "/>
</clipPath>
<clipPath id="clip13">
  <path d="M 51 53 L 56 53 L 56 57.597656 L 51 57.597656 Z M 51 53 "/>
</clipPath>
<clipPath id="clip14">
  <path d="M 52 53 L 57 53 L 57 57.597656 L 52 57.597656 Z M 52 53 "/>
</clipPath>
<clipPath id="clip15">
  <path d="M 53 53 L 57.597656 53 L 57.597656 57.597656 L 53 57.597656 Z M 53 53 "/>
</clipPath>
</defs>
<g id="surface402550">
<rect x="0" y="0" width="72" height="72" style="fill:rgb(100%,100%,100%);fill-opacity:1;stroke:none;"/>
<g clip-path="url(#clip1)" clip-rule="nonzero">
<path style=" stroke:none;fill-rule:nonzero;fill:rgb(25.490196%,71.372549%,76.862745%);fill-opacity:1;" d="M 18.023438 42.550781 C 18.023438 45.25 13.976562 45.25 13.976562 42.550781 C 13.976562 39.851562 18.023438 39.851562 18.023438 42.550781 "/>
</g>
<g clip-path="url(#clip2)" clip-rule="nonzero">
<path style=" stroke:none;fill-rule:nonzero;fill:rgb(25.490196%,71.372549%,76.862745%);fill-opacity:1;" d="M 19.359375 16.9375 C 19.359375 19.636719 15.308594 19.636719 15.308594 16.9375 C 15.308594 14.234375 19.359375 14.234375 19.359375 16.9375 "/>
</g>
<g clip-path="url(#clip3)" clip-rule="nonzero">
<path style=" stroke:none;fill-rule:nonzero;fill:rgb(25.490196%,71.372549%,76.862745%);fill-opacity:1;" d="M 20.691406 16 C 20.691406 18.699219 16.640625 18.699219 16.640625 16 C 16.640625 13.300781 20.691406 13.300781 20.691406 16 "/>
</g>
<path style=" stroke:none;fill-rule:nonzero;fill:rgb(25.490196%,71.372549%,76.862745%);fill-opacity:1;" d="M 22.023438 30.765625 C 22.023438 33.464844 17.976562 33.464844 17.976562 30.765625 C 17.976562 28.0625 22.023438 28.0625 22.023438 30.765625 "/>
<path style=" stroke:none;fill-rule:nonzero;fill:rgb(25.490196%,71.372549%,76.862745%);fill-opacity:1;" d="M 23.359375 50.445312 C 23.359375 53.148438 19.308594 53.148438 19.308594 50.445312 C 19.308594 47.746094 23.359375 47.746094 23.359375 50.445312 "/>
<path style=" stroke:none;fill-rule:nonzero;fill:rgb(25.490196%,71.372549%,76.862745%);fill-opacity:1;" d="M 24.691406 49.011719 C 24.691406 51.710938 20.640625 51.710938 20.640625 49.011719 C 20.640625 46.308594 24.691406 46.308594 24.691406 49.011719 "/>
<path style=" stroke:none;fill-rule:nonzero;fill:rgb(25.490196%,71.372549%,76.862745%);fill-opacity:1;" d="M 26.023438 51.472656 C 26.023438 54.171875 21.976562 54.171875 21.976562 51.472656 C 21.976562 48.773438 26.023438 48.773438 26.023438 51.472656 "/>
<path style=" stroke:none;fill-rule:nonzero;fill:rgb(25.490196%,71.372549%,76.862745%);fill-opacity:1;" d="M 27.359375 49.695312 C 27.359375 52.394531 23.308594 52.394531 23.308594 49.695312 C 23.308594 46.992188 27.359375 46.992188 27.359375 49.695312 "/>
<path style=" stroke:none;fill-rule:nonzero;fill:rgb(25.490196%,71.372549%,76.862745%);fill-opacity:1;" d="M 28.691406 42.25 C 28.691406 44.949219 24.640625 44.949219 24.640625 42.25 C 24.640625 39.546875 28.691406 39.546875 28.691406 42.25 "/>
<path style=" stroke:none;fill-rule:nonzero;fill:rgb(25.490196%,71.372549%,76.862745%);fill-opacity:1;" d="M 30.023438 40.449219 C 30.023438 43.148438 25.976562 43.148438 25.976562 40.449219 C 25.976562 37.75 30.023438 37.75 30.023438 40.449219 "/>
<path style=" stroke:none;fill-rule:nonzero;fill:rgb(25.490196%,71.372549%,76.862745%);fill-opacity:1;" d="M 31.359375 46.03125 C 31.359375 48.730469 27.308594 48.730469 27.308594 46.03125 C 27.308594 43.332031 31.359375 43.332031 31.359375 46.03125 "/>
<path style=" stroke:none;fill-rule:nonzero;fill:rgb(25.490196%,71.372549%,76.862745%);fill-opacity:1;" d="M 32.691406 50.453125 C 32.691406 53.152344 28.640625 53.152344 28.640625 50.453125 C 28.640625 47.75 32.691406 47.75 32.691406 50.453125 "/>
<path style=" stroke:none;fill-rule:nonzero;fill:rgb(25.490196%,71.372549%,76.862745%);fill-opacity:1;" d="M 34.023438 54.054688 C 34.023438 56.753906 29.976562 56.753906 29.976562 54.054688 C 29.976562 51.355469 34.023438 51.355469 34.023438 54.054688 "/>
<path style=" stroke:none;fill-rule:nonzero;fill:rgb(25.490196%,71.372549%,76.862745%);fill-opacity:1;" d="M 35.359375 54.636719 C 35.359375 57.335938 31.308594 57.335938 31.308594 54.636719 C 31.308594 51.9375 35.359375 51.9375 35.359375 54.636719 "/>
<path style=" stroke:none;fill-rule:nonzero;fill:rgb(25.490196%,71.372549%,76.862745%);fill-opacity:1;" d="M 36.691406 54.214844 C 36.691406 56.914062 32.640625 56.914062 32.640625 54.214844 C 32.640625 51.515625 36.691406 51.515625 36.691406 54.214844 "/>
<path style=" stroke:none;fill-rule:nonzero;fill:rgb(25.490196%,71.372549%,76.862745%);fill-opacity:1;" d="M 38.023438 52.972656 C 38.023438 55.671875 33.976562 55.671875 33.976562 52.972656 C 33.976562 50.273438 38.023438 50.273438 38.023438 52.972656 "/>
<path style=" stroke:none;fill-rule:nonzero;fill:rgb(25.490196%,71.372549%,76.862745%);fill-opacity:1;" d="M 39.359375 51.851562 C 39.359375 54.550781 35.308594 54.550781 35.308594 51.851562 C 35.308594 49.152344 39.359375 49.152344 39.359375 51.851562 "/>
<g clip-path="url(#clip4)" clip-rule="nonzero">
<path style=" stroke:none;fill-rule:nonzero;fill:rgb(25.490196%,71.372549%,76.862745%);fill-opacity:1;" d="M 40.691406 55.429688 C 40.691406 58.128906 36.640625 58.128906 36.640625 55.429688 C 36.640625 52.730469 40.691406 52.730469 40.691406 55.429688 "/>
</g>
<g clip-path="url(#clip5)" clip-rule="nonzero">
<path style=" stroke:none;fill-rule:nonzero;fill:rgb(25.490196%,71.372549%,76.862745%);fill-opacity:1;" d="M 42.023438 55.449219 C 42.023438 58.148438 37.976562 58.148438 37.976562 55.449219 C 37.976562 52.746094 42.023438 52.746094 42.023438 55.449219 "/>
</g>
<path style=" stroke:none;fill-rule:nonzero;fill:rgb(25.490196%,71.372549%,76.862745%);fill-opacity:1;" d="M 43.359375 54.792969 C 43.359375 57.496094 39.308594 57.496094 39.308594 54.792969 C 39.308594 52.09375 43.359375 52.09375 43.359375 54.792969 "/>
<path style=" stroke:none;fill-rule:nonzero;fill:rgb(25.490196%,71.372549%,76.862745%);fill-opacity:1;" d="M 44.691406 54.542969 C 44.691406 57.242188 40.640625 57.242188 40.640625 54.542969 C 40.640625 51.84375 44.691406 51.84375 44.691406 54.542969 "/>
<g clip-path="url(#clip6)" clip-rule="nonzero">
<path style=" stroke:none;fill-rule:nonzero;fill:rgb(25.490196%,71.372549%,76.862745%);fill-opacity:1;" d="M 46.023438 55.402344 C 46.023438 58.101562 41.976562 58.101562 41.976562 55.402344 C 41.976562 52.703125 46.023438 52.703125 46.023438 55.402344 "/>
</g>
<g clip-path="url(#clip7)" clip-rule="nonzero">
<path style=" stroke:none;fill-rule:nonzero;fill:rgb(25.490196%,71.372549%,76.862745%);fill-opacity:1;" d="M 47.359375 55.710938 C 47.359375 58.410156 43.308594 58.410156 43.308594 55.710938 C 43.308594 53.011719 47.359375 53.011719 47.359375 55.710938 "/>
</g>
<g clip-path="url(#clip8)" clip-rule="nonzero">
<path style=" stroke:none;fill-rule:nonzero;fill:rgb(25.490196%,71.372549%,76.862745%);fill-opacity:1;" d="M 48.691406 55.820312 C 48.691406 58.519531 44.640625 58.519531 44.640625 55.820312 C 44.640625 53.121094 48.691406 53.121094 48.691406 55.820312 "/>
</g>
<g clip-path="url(#clip9)" clip-rule="nonzero">
<path style=" stroke:none;fill-rule:nonzero;fill:rgb(25.490196%,71.372549%,76.862745%);fill-opacity:1;" d="M 50.023438 55.832031 C 50.023438 58.53125 45.976562 58.53125 45.976562 55.832031 C 45.976562 53.128906 50.023438 53.128906 50.023438 55.832031 "/>
</g>
<g clip-path="url(#clip10)" clip-rule="nonzero">
<path style=" stroke:none;fill-rule:nonzero;fill:rgb(25.490196%,71.372549%,76.862745%);fill-opacity:1;" d="M 51.359375 55.792969 C 51.359375 58.492188 47.308594 58.492188 47.308594 55.792969 C 47.308594 53.09375 51.359375 53.09375 51.359375 55.792969 "/>
</g>
<g clip-path="url(#clip11)" clip-rule="nonzero">
<path style=" stroke:none;fill-rule:nonzero;fill:rgb(25.490196%,71.372549%,76.862745%);fill-opacity:1;" d="M 52.691406 55.765625 C 52.691406 58.464844 48.640625 58.464844 48.640625 55.765625 C 48.640625 53.0625 52.691406 53.0625 52.691406 55.765625 "/>
</g>
<g clip-path="url(#clip12)" clip-rule="nonzero">
<path style=" stroke:none;fill-rule:nonzero;fill:rgb(25.490196%,71.372549%,76.862745%);fill-opacity:1;" d="M 54.023438 55.871094 C 54.023438 58.570312 49.976562 58.570312 49.976562 55.871094 C 49.976562 53.171875 54.023438 53.171875 54.023438 55.871094 "/>
</g>
<g clip-path="url(#clip13)" clip-rule="nonzero">
<path style=" stroke:none;fill-rule:nonzero;fill:rgb(25.490196%,71.372549%,76.862745%);fill-opacity:1;" d="M 55.359375 55.945312 C 55.359375 58.644531 51.308594 58.644531 51.308594 55.945312 C 51.308594 53.246094 55.359375 53.246094 55.359375 55.945312 "/>
</g>
<g clip-path="url(#clip14)" clip-rule="nonzero">
<path style=" stroke:none;fill-rule:nonzero;fill:rgb(25.490196%,71.372549%,76.862745%);fill-opacity:1;" d="M 56.691406 55.945312 C 56.691406 58.644531 52.640625 58.644531 52.640625 55.945312 C 52.640625 53.246094 56.691406 53.246094 56.691406 55.945312 "/>
</g>
<g clip-path="url(#clip15)" clip-rule="nonzero">
<path style=" stroke:none;fill-rule:nonzero;fill:rgb(25.490196%,71.372549%,76.862745%);fill-opacity:1;" d="M 58.023438 56 C 58.023438 58.699219 53.976562 58.699219 53.976562 56 C 53.976562 53.300781 58.023438 53.300781 58.023438 56 "/>
</g>
<path style="fill:none;stroke-width:0.75;stroke-linecap:round;stroke-linejoin:round;stroke:rgb(0%,0%,0%);stroke-opacity:1;stroke-miterlimit:10;" d="M 14.667969 57.601562 L 54.667969 57.601562 "/>
<path style="fill:none;stroke-width:0.75;stroke-linecap:round;stroke-linejoin:round;stroke:rgb(0%,0%,0%);stroke-opacity:1;stroke-miterlimit:10;" d="M 14.667969 57.601562 L 14.667969 64.800781 "/>
<path style="fill:none;stroke-width:0.75;stroke-linecap:round;stroke-linejoin:round;stroke:rgb(0%,0%,0%);stroke-opacity:1;stroke-miterlimit:10;" d="M 21.332031 57.601562 L 21.332031 64.800781 "/>
<path style="fill:none;stroke-width:0.75;stroke-linecap:round;stroke-linejoin:round;stroke:rgb(0%,0%,0%);stroke-opacity:1;stroke-miterlimit:10;" d="M 28 57.601562 L 28 64.800781 "/>
<path style="fill:none;stroke-width:0.75;stroke-linecap:round;stroke-linejoin:round;stroke:rgb(0%,0%,0%);stroke-opacity:1;stroke-miterlimit:10;" d="M 34.667969 57.601562 L 34.667969 64.800781 "/>
<path style="fill:none;stroke-width:0.75;stroke-linecap:round;stroke-linejoin:round;stroke:rgb(0%,0%,0%);stroke-opacity:1;stroke-miterlimit:10;" d="M 41.332031 57.601562 L 41.332031 64.800781 "/>
<path style="fill:none;stroke-width:0.75;stroke-linecap:round;stroke-linejoin:round;stroke:rgb(0%,0%,0%);stroke-opacity:1;stroke-miterlimit:10;" d="M 48 57.601562 L 48 64.800781 "/>
<path style="fill:none;stroke-width:0.75;stroke-linecap:round;stroke-linejoin:round;stroke:rgb(0%,0%,0%);stroke-opacity:1;stroke-miterlimit:10;" d="M 54.667969 57.601562 L 54.667969 64.800781 "/>
<path style="fill:none;stroke-width:0.75;stroke-linecap:round;stroke-linejoin:round;stroke:rgb(0%,0%,0%);stroke-opacity:1;stroke-miterlimit:10;" d="M 14.398438 56.15625 L 14.398438 15.855469 "/>
<path style="fill:none;stroke-width:0.75;stroke-linecap:round;stroke-linejoin:round;stroke:rgb(0%,0%,0%);stroke-opacity:1;stroke-miterlimit:10;" d="M 14.398438 56.15625 L 7.199219 56.15625 "/>
<path style="fill:none;stroke-width:0.75;stroke-linecap:round;stroke-linejoin:round;stroke:rgb(0%,0%,0%);stroke-opacity:1;stroke-miterlimit:10;" d="M 14.398438 42.722656 L 7.199219 42.722656 "/>
<path style="fill:none;stroke-width:0.75;stroke-linecap:round;stroke-linejoin:round;stroke:rgb(0%,0%,0%);stroke-opacity:1;stroke-miterlimit:10;" d="M 14.398438 29.289062 L 7.199219 29.289062 "/>
<path style="fill:none;stroke-width:0.75;stroke-linecap:round;stroke-linejoin:round;stroke:rgb(0%,0%,0%);stroke-opacity:1;stroke-miterlimit:10;" d="M 14.398438 15.855469 L 7.199219 15.855469 "/>
<path style="fill:none;stroke-width:0.75;stroke-linecap:round;stroke-linejoin:round;stroke:rgb(0%,0%,0%);stroke-opacity:1;stroke-miterlimit:10;" d="M 14.398438 57.601562 L 57.601562 57.601562 L 57.601562 14.398438 L 14.398438 14.398438 L 14.398438 57.601562 "/>
<path style="fill:none;stroke-width:0.75;stroke-linecap:round;stroke-linejoin:round;stroke:rgb(25.490196%,71.372549%,76.862745%);stroke-opacity:1;stroke-miterlimit:10;" d="M 16 42.550781 L 17.332031 16.9375 L 18.667969 16 L 20 30.765625 L 21.332031 50.445312 L 22.667969 49.011719 L 24 51.472656 L 25.332031 49.695312 L 26.667969 42.25 L 28 40.449219 L 29.332031 46.03125 L 30.667969 50.453125 L 32 54.054688 L 33.332031 54.636719 L 34.667969 54.214844 L 36 52.972656 L 37.332031 51.851562 L 38.667969 55.429688 L 40 55.449219 L 41.332031 54.792969 L 42.667969 54.542969 L 44 55.402344 L 45.332031 55.710938 L 46.667969 55.820312 L 48 55.832031 L 49.332031 55.792969 L 50.667969 55.765625 L 52 55.871094 L 53.332031 55.945312 L 54.667969 55.945312 L 56 56 "/>
</g>
</svg>
